<?xml version="1.0" encoding="utf-8"?>
<!-- Generator: Adobe Illustrator 16.0.0, SVG Export Plug-In . SVG Version: 6.00 Build 0)  -->
<!DOCTYPE svg PUBLIC "-//W3C//DTD SVG 1.0//EN" "http://www.w3.org/TR/2001/REC-SVG-20010904/DTD/svg10.dtd">
<svg version="1.0" id="Layer_1" xmlns="http://www.w3.org/2000/svg" xmlns:xlink="http://www.w3.org/1999/xlink" x="0px" y="0px"
	 width="289.672px" height="175.681px" viewBox="0 0 289.672 175.681" enable-background="new 0 0 289.672 175.681"
	 xml:space="preserve">
<path fill="#FFFFFF" d="M236.473,120.552h-46.228l15.814-20.313v-0.009c3.262-3.018,5.317-7.324,5.317-12.119
	c0-4.322-1.671-8.244-4.388-11.189l0.002-0.027l-17.114-21.839h46.597c9.128,0,16.527-7.399,16.527-16.528
	C253,29.399,245.601,22,236.473,22h-80.647c-0.479,0-0.948,0.031-1.417,0.072v-0.007l-0.012,0.007
	c-5.248,0.451-9.786,3.35-12.481,7.553l-0.016,0.01L110.45,72.348L64.766,27.447c-0.449-0.495-0.922-0.965-1.428-1.402l-0.107-0.106
	l0.001,0.009C60.348,23.491,56.614,22,52.527,22c-8.798,0-15.969,6.879-16.478,15.549h-0.01v0.196
	C36.027,38.007,36,38.264,36,38.527c0,0.264,0.027,0.521,0.04,0.782v96.988c-0.013,0.261-0.04,0.518-0.04,0.781
	c0,0.264,0.027,0.521,0.04,0.782v0.193h0.01c0.507,8.671,7.679,15.552,16.478,15.552c8.799,0,15.971-6.881,16.479-15.552h0.012
	v-0.249c0.011-0.242,0.037-0.48,0.037-0.727c0-0.242-0.026-0.477-0.036-0.715l0.022-60.343l28.896,29.268l0.006-0.015
	c3.023,3.89,7.735,6.402,13.043,6.402c5.596,0,10.532-2.788,13.523-7.042l0.005,0.004l29.895-39.979l20.546,23.452l-26.904,36.112
	c-2.152,1.738-3.855,4.005-4.919,6.603l-0.014,0.018l0.007-0.002c-0.786,1.926-1.227,4.03-1.227,6.237
	c0,9.128,7.398,16.528,16.528,16.528h80.38l-0.012-0.181c8.025-1.132,14.205-8.009,14.205-16.347
	C253,127.951,245.601,120.552,236.473,120.552z"/>
</svg>
